<svg width="64" height="49" viewBox="0 0 64 49" fill="#e94600" xmlns="http://www.w3.org/2000/svg">
    <path d="M0 39.0334H1.53137C1.69825 39.0334 1.8324 39.0675 1.93711 39.139C2.04182 39.2105 2.11708 39.3038 2.16289 39.4219L3.75316 43.5966C3.82514 43.78 3.89713 43.9759 3.96912 44.1903C4.04111 44.4048 4.10982 44.6286 4.17526 44.8649C4.22762 44.6286 4.28979 44.4048 4.35851 44.1903C4.42722 43.9759 4.49594 43.7769 4.56465 43.5966L6.14183 39.4219C6.17782 39.3224 6.25308 39.2323 6.36106 39.1515C6.46904 39.0707 6.6032 39.0302 6.76026 39.0302H8.30472L5.01294 46.8295H3.28851L0 39.0334ZM10.9879 39.7607C10.9879 39.8913 10.9584 40.0156 10.9028 40.1338C10.8472 40.2488 10.7686 40.3514 10.6705 40.4384C10.5723 40.5254 10.4578 40.5969 10.3302 40.6467C10.1993 40.6995 10.0619 40.7244 9.91462 40.7244C9.76737 40.7244 9.63976 40.6995 9.51542 40.6467C9.39107 40.5938 9.28309 40.5254 9.18493 40.4384C9.08676 40.3514 9.01478 40.2488 8.95915 40.1338C8.90352 40.0187 8.87735 39.8944 8.87735 39.7607C8.87735 39.6271 8.90352 39.4996 8.95915 39.3815C9.01478 39.2634 9.09004 39.1608 9.18493 39.0707C9.27982 38.9805 9.39107 38.9121 9.51542 38.8624C9.63976 38.8126 9.77391 38.7878 9.91462 38.7878C10.0553 38.7878 10.1993 38.8126 10.3302 38.8624C10.4611 38.9121 10.5723 38.9805 10.6705 39.0707C10.7686 39.1608 10.8439 39.2634 10.9028 39.3815C10.9617 39.4996 10.9879 39.6271 10.9879 39.7607ZM10.785 41.2808V46.8326H9.03768V41.2808H10.785ZM16.4066 42.5988C16.3542 42.661 16.3019 42.7076 16.256 42.7418C16.207 42.776 16.1382 42.7946 16.0466 42.7946C15.955 42.7946 15.883 42.776 15.8143 42.7356C15.7456 42.6952 15.6671 42.6516 15.582 42.605C15.4969 42.5584 15.3955 42.5118 15.2777 42.4745C15.1599 42.434 15.0159 42.4154 14.8425 42.4154C14.6298 42.4154 14.4433 42.4527 14.2862 42.5273C14.1291 42.6019 14.0015 42.7107 13.9001 42.8475C13.7987 42.9874 13.7234 43.1583 13.6743 43.3573C13.6252 43.5593 13.6023 43.7862 13.6023 44.0411C13.6023 44.5727 13.7103 44.9799 13.9263 45.2659C14.1422 45.5519 14.44 45.6949 14.8196 45.6949C15.0224 45.6949 15.1828 45.67 15.3006 45.6234C15.4184 45.5767 15.5198 45.5208 15.6016 45.4617C15.6834 45.4027 15.7587 45.3498 15.8307 45.297C15.8994 45.2472 15.9877 45.2224 16.0924 45.2224C16.2299 45.2224 16.3379 45.269 16.4066 45.3654L16.9137 45.9591C16.7338 46.1549 16.544 46.3166 16.3444 46.4378C16.1448 46.5621 15.9419 46.6585 15.7325 46.7269C15.5231 46.7953 15.3137 46.845 15.1042 46.8699C14.8948 46.8978 14.6887 46.9103 14.4891 46.9103C14.1324 46.9103 13.7921 46.845 13.4649 46.7175C13.141 46.5901 12.853 46.4036 12.6076 46.158C12.3622 45.9125 12.1659 45.614 12.0219 45.2566C11.8779 44.8991 11.8059 44.4919 11.8059 44.0349C11.8059 43.6339 11.8681 43.2609 11.9957 42.9128C12.12 42.5646 12.3066 42.2631 12.552 42.0082C12.7974 41.7533 13.1017 41.5512 13.4649 41.4051C13.8281 41.259 14.2469 41.1844 14.7247 41.1844C15.2024 41.1844 15.5853 41.2528 15.9288 41.3927C16.2757 41.5326 16.5865 41.7346 16.8647 42.002L16.4033 42.5864L16.4066 42.5988ZM19.718 46.9196C19.4398 46.9196 19.1944 46.8823 18.9817 46.8046C18.7691 46.7269 18.5924 46.6181 18.4451 46.4782C18.3011 46.3383 18.1899 46.1673 18.1146 45.9684C18.0394 45.7695 18.0034 45.5456 18.0034 45.3001V42.4309H17.506C17.4144 42.4309 17.3391 42.403 17.2737 42.347C17.2082 42.2911 17.1788 42.2102 17.1788 42.1045V41.458L18.1081 41.287L18.4517 39.9317C18.4975 39.7607 18.6251 39.6737 18.8345 39.6737H19.7474V41.2963H21.1675V42.4309H19.7474V45.1882C19.7474 45.3156 19.7802 45.4244 19.8456 45.5052C19.911 45.5892 20.0059 45.6327 20.1303 45.6327C20.1924 45.6327 20.2481 45.6265 20.2906 45.614C20.3331 45.6016 20.3724 45.5861 20.4019 45.5705C20.4346 45.555 20.464 45.5394 20.4935 45.527C20.5229 45.5146 20.5557 45.5083 20.5916 45.5083C20.644 45.5083 20.6865 45.5208 20.7193 45.5425C20.752 45.5643 20.7847 45.6016 20.8174 45.6513L21.3475 46.4378C21.1217 46.5994 20.8698 46.7176 20.5884 46.7984C20.307 46.8792 20.0157 46.9196 19.7147 46.9196H19.718ZM24.7767 41.1969C25.2185 41.1969 25.6242 41.2621 25.9874 41.3958C26.3506 41.5264 26.6648 41.716 26.9265 41.9647C27.1883 42.2102 27.3912 42.5086 27.5352 42.8599C27.6791 43.2112 27.7511 43.6059 27.7511 44.0442C27.7511 44.4825 27.6791 44.8866 27.5352 45.241C27.3912 45.5954 27.1883 45.8969 26.9265 46.1456C26.6648 46.3943 26.3539 46.5839 25.9874 46.7175C25.6242 46.8512 25.2185 46.9196 24.7767 46.9196C24.335 46.9196 23.9227 46.8543 23.5562 46.7175C23.1897 46.5839 22.8756 46.3943 22.6106 46.1456C22.3455 45.8969 22.1394 45.5954 21.9954 45.241C21.8514 44.8866 21.7794 44.4888 21.7794 44.0442C21.7794 43.5997 21.8514 43.2112 21.9954 42.8599C22.1394 42.5086 22.3455 42.2102 22.6106 41.9647C22.8756 41.7191 23.1897 41.5295 23.5562 41.3958C23.9227 41.2653 24.3284 41.1969 24.7767 41.1969ZM24.7767 45.6886C25.1792 45.6886 25.4737 45.555 25.6635 45.2845C25.8533 45.0141 25.9482 44.6069 25.9482 44.0567C25.9482 43.5065 25.8533 43.0993 25.6635 42.8319C25.4737 42.5646 25.1792 42.4309 24.7767 42.4309C24.3743 42.4309 24.0601 42.5646 23.8703 42.8319C23.6773 43.0993 23.5824 43.5096 23.5824 44.0567C23.5824 44.6038 23.6773 45.0172 23.8703 45.2845C24.0634 45.555 24.3644 45.6886 24.7767 45.6886ZM28.7099 46.8326V41.2808H29.7471C29.8322 41.2808 29.9075 41.287 29.9631 41.3026C30.022 41.3181 30.0711 41.3399 30.1103 41.3678C30.1496 41.3989 30.1791 41.4393 30.202 41.4891C30.2216 41.5388 30.2412 41.601 30.2543 41.6725L30.3492 42.1916C30.5619 41.8776 30.804 41.6289 31.0691 41.4487C31.3341 41.2684 31.6253 41.1751 31.9427 41.1751C32.2111 41.1751 32.4237 41.2373 32.5841 41.3585L32.3583 42.5801C32.3419 42.6547 32.3125 42.7076 32.2667 42.7387C32.2209 42.7698 32.162 42.7853 32.0867 42.7853C32.0213 42.7853 31.9493 42.776 31.8609 42.7604C31.7759 42.7449 31.6646 42.7356 31.5337 42.7356C31.0756 42.7356 30.7157 42.9687 30.4506 43.4319V46.8357H28.7033L28.7099 46.8326ZM35.3687 39.7607C35.3687 39.8913 35.3392 40.0156 35.2836 40.1338C35.228 40.2488 35.1494 40.3514 35.0513 40.4384C34.9531 40.5254 34.8386 40.5969 34.711 40.6467C34.5801 40.6995 34.4427 40.7244 34.2987 40.7244C34.1547 40.7244 34.0238 40.6995 33.8995 40.6467C33.7751 40.5938 33.6672 40.5254 33.569 40.4384C33.4708 40.3514 33.3988 40.2488 33.3432 40.1338C33.2876 40.0187 33.2614 39.8944 33.2614 39.7607C33.2614 39.6271 33.2876 39.4996 33.3432 39.3815C33.3988 39.2634 33.4741 39.1608 33.569 39.0707C33.6639 38.9805 33.7751 38.9121 33.8995 38.8624C34.0238 38.8126 34.158 38.7878 34.2987 38.7878C34.4394 38.7878 34.5834 38.8126 34.711 38.8624C34.8419 38.9121 34.9531 38.9805 35.0513 39.0707C35.1494 39.1608 35.2247 39.2634 35.2836 39.3815C35.3392 39.4996 35.3687 39.6271 35.3687 39.7607ZM35.1658 41.2808V46.8326H33.4185V41.2808H35.1658ZM40.6074 46.8326C40.4405 46.8326 40.3162 46.8108 40.2311 46.7673C40.146 46.7238 40.0773 46.6367 40.0184 46.5L39.8941 46.1953C39.7468 46.3134 39.6061 46.416 39.472 46.5062C39.3378 46.5963 39.1971 46.6709 39.0531 46.7331C38.9091 46.7953 38.7554 46.8419 38.5918 46.873C38.4281 46.9041 38.2482 46.9196 38.0486 46.9196C37.7803 46.9196 37.5381 46.8854 37.3222 46.8201C37.1029 46.7548 36.9197 46.6554 36.7659 46.5279C36.6121 46.4005 36.4976 46.2388 36.4125 46.0461C36.3307 45.8534 36.2882 45.6327 36.2882 45.384C36.2882 45.1882 36.3405 44.9861 36.4452 44.7778C36.5499 44.5696 36.7332 44.38 36.9917 44.2121C37.2502 44.0411 37.6003 43.9013 38.0388 43.7862C38.4772 43.6712 39.0335 43.6153 39.701 43.6153V43.379C39.701 43.0526 39.6323 42.8133 39.4883 42.6672C39.3443 42.5211 39.148 42.4496 38.8895 42.4496C38.6834 42.4496 38.5132 42.4713 38.3823 42.5149C38.2514 42.5584 38.1336 42.605 38.0289 42.6579C37.9242 42.7107 37.8261 42.7604 37.7279 42.8008C37.6297 42.8444 37.5152 42.8661 37.3778 42.8661C37.2567 42.8661 37.1553 42.8382 37.0702 42.7822C36.9851 42.7262 36.9197 42.6579 36.8706 42.577L36.5565 42.0579C36.9099 41.7626 37.3025 41.5419 37.7312 41.3958C38.1598 41.2528 38.6212 41.1782 39.1153 41.1782C39.4687 41.1782 39.7861 41.2342 40.0708 41.343C40.3554 41.4518 40.5943 41.6041 40.7906 41.7968C40.987 41.9926 41.1375 42.2227 41.2455 42.49C41.3534 42.7573 41.4025 43.0495 41.4025 43.3666V46.8357H40.6041L40.6074 46.8326ZM38.6016 45.8223C38.8273 45.8223 39.0237 45.785 39.1938 45.7104C39.364 45.6358 39.5341 45.5146 39.7076 45.3467V44.5882C39.3574 44.5882 39.0695 44.61 38.847 44.6535C38.6212 44.697 38.4445 44.7499 38.3103 44.8152C38.1795 44.8804 38.0878 44.955 38.0355 45.0359C37.9864 45.1198 37.9602 45.2099 37.9602 45.3063C37.9602 45.4959 38.0159 45.6327 38.1238 45.7073C38.2318 45.785 38.3921 45.8223 38.6016 45.8223ZM44.0432 45.9622H47.5378V46.8357H42.9503V39.1639H44.0432V45.9622ZM50.6922 41.3274C51.1077 41.3274 51.4873 41.3927 51.8211 41.5264C52.1581 41.6569 52.4428 41.8465 52.6784 42.089C52.914 42.3315 53.0939 42.6268 53.2183 42.9687C53.3426 43.3137 53.408 43.6961 53.408 44.122C53.408 44.5478 53.3459 44.9364 53.2183 45.2783C53.0939 45.6203 52.9107 45.9124 52.6784 46.1549C52.446 46.3974 52.1581 46.5839 51.8211 46.7144C51.484 46.845 51.1077 46.9103 50.6922 46.9103C50.2766 46.9103 49.897 46.845 49.5633 46.7144C49.2262 46.5839 48.9416 46.3974 48.7027 46.1549C48.4671 45.9124 48.2839 45.6203 48.1562 45.2783C48.0286 44.9364 47.9632 44.5509 47.9632 44.122C47.9632 43.693 48.0254 43.3137 48.1562 42.9687C48.2839 42.6237 48.4671 42.3315 48.7027 42.089C48.9383 41.8465 49.2262 41.66 49.5633 41.5264C49.9003 41.3958 50.2766 41.3274 50.6922 41.3274ZM50.6922 46.1673C51.255 46.1673 51.6771 45.9871 51.9552 45.6296C52.2333 45.2721 52.3708 44.7716 52.3708 44.1282C52.3708 43.4847 52.2333 42.978 51.9552 42.6174C51.6771 42.2569 51.255 42.0766 50.6922 42.0766C50.4075 42.0766 50.1588 42.1232 49.9494 42.2164C49.74 42.3097 49.5633 42.4434 49.4226 42.6174C49.2819 42.7915 49.1772 43.006 49.1084 43.2609C49.0397 43.5158 49.0037 43.8049 49.0037 44.1251C49.0037 44.4452 49.0397 44.7343 49.1084 44.9861C49.1772 45.241 49.2819 45.4524 49.4226 45.6265C49.5633 45.8005 49.74 45.9311 49.9494 46.0244C50.1588 46.1176 50.4075 46.1642 50.6922 46.1642V46.1673ZM56.5689 41.3243C56.8176 41.3243 57.05 41.3492 57.2659 41.402C57.4819 41.4549 57.6782 41.5295 57.8549 41.6289H59.4059V41.9833C59.4059 42.1014 59.3274 42.176 59.1703 42.2071L58.5224 42.2942C58.65 42.5273 58.7155 42.7853 58.7155 43.0713C58.7155 43.3355 58.6631 43.5749 58.5551 43.7925C58.4472 44.0069 58.2999 44.1935 58.1101 44.3458C57.9203 44.4981 57.6946 44.6162 57.4328 44.7001C57.171 44.781 56.8863 44.8245 56.5722 44.8245C56.3039 44.8245 56.0552 44.7934 55.8164 44.7343C55.6953 44.8089 55.6037 44.8866 55.5415 44.9737C55.4793 45.0607 55.4499 45.1415 55.4499 45.2224C55.4499 45.356 55.5055 45.4555 55.6135 45.5239C55.7215 45.5923 55.8654 45.642 56.0487 45.67C56.2286 45.7011 56.4348 45.7135 56.6638 45.7135H57.3641C57.6029 45.7135 57.8353 45.7322 58.0643 45.7726C58.2934 45.813 58.4995 45.8783 58.6795 45.9684C58.8595 46.0586 59.0034 46.1829 59.1147 46.3414C59.2227 46.5 59.2783 46.7051 59.2783 46.96C59.2783 47.1963 59.2161 47.4232 59.0951 47.6439C58.974 47.8646 58.7973 48.0604 58.5682 48.2314C58.3392 48.4024 58.0578 48.5391 57.7273 48.6448C57.3968 48.7474 57.0238 48.8002 56.6049 48.8002C56.1861 48.8002 55.8229 48.7598 55.5088 48.6821C55.1946 48.6044 54.9361 48.4987 54.73 48.365C54.5239 48.2314 54.3668 48.0791 54.2654 47.9081C54.1606 47.734 54.1116 47.5537 54.1116 47.3641C54.1116 47.0968 54.1999 46.8668 54.3799 46.6802C54.5598 46.4937 54.802 46.3445 55.1161 46.2326C54.9558 46.1611 54.8249 46.0648 54.73 45.9466C54.6351 45.8285 54.586 45.6669 54.586 45.4679C54.586 45.3902 54.6024 45.3094 54.6318 45.2255C54.6613 45.1415 54.7071 45.0576 54.7693 44.9768C54.8314 44.896 54.9067 44.8151 54.9983 44.7405C55.0899 44.6659 55.1946 44.6007 55.3124 44.5416C55.031 44.3924 54.8085 44.1935 54.6515 43.9448C54.4911 43.6961 54.4126 43.407 54.4126 43.0744C54.4126 42.8102 54.465 42.5708 54.5729 42.3532C54.6809 42.1387 54.8282 41.9522 55.0212 41.803C55.211 41.6507 55.4401 41.5357 55.7051 41.4518C55.9701 41.3678 56.2614 41.3274 56.5755 41.3274L56.5689 41.3243ZM58.349 47.1123C58.349 46.9756 58.3097 46.8637 58.2312 46.7797C58.1527 46.6958 58.0447 46.6305 57.9105 46.587C57.7764 46.5404 57.6193 46.5093 57.4426 46.4844C57.2659 46.4627 57.0794 46.4502 56.8863 46.4502H56.2875C56.0847 46.4502 55.8916 46.4253 55.7084 46.3787C55.4957 46.4751 55.319 46.5932 55.1881 46.7331C55.0539 46.873 54.9885 47.0377 54.9885 47.2305C54.9885 47.3517 55.0212 47.4667 55.0867 47.5693C55.1521 47.675 55.2535 47.7651 55.3877 47.8428C55.5219 47.9205 55.692 47.9796 55.8982 48.0262C56.1043 48.0729 56.3432 48.0946 56.6213 48.0946C56.8994 48.0946 57.135 48.0697 57.3477 48.0231C57.5604 47.9765 57.7436 47.9081 57.8909 47.8211C58.0381 47.734 58.1527 47.6314 58.2312 47.5102C58.3097 47.389 58.349 47.2584 58.349 47.1123ZM56.5689 44.1872C56.7718 44.1872 56.9518 44.1593 57.1056 44.1064C57.2626 44.0536 57.3935 43.979 57.4982 43.8826C57.6029 43.7862 57.6815 43.6712 57.7338 43.5376C57.7862 43.4039 57.8124 43.2578 57.8124 43.0962C57.8124 42.7635 57.7077 42.4993 57.495 42.3035C57.2823 42.1077 56.9747 42.0082 56.5689 42.0082C56.1632 42.0082 55.8589 42.1077 55.6462 42.3035C55.4335 42.4993 55.3288 42.7635 55.3288 43.0962C55.3288 43.2578 55.355 43.4039 55.4106 43.5376C55.4662 43.6712 55.5448 43.7862 55.6495 43.8826C55.7542 43.979 55.8851 44.0536 56.0389 44.1064C56.1926 44.1593 56.3693 44.1872 56.5689 44.1872ZM63.6728 42.3097C63.627 42.3874 63.5583 42.4278 63.4634 42.4278C63.4077 42.4278 63.3423 42.4092 63.2703 42.3688C63.1983 42.3284 63.11 42.2848 63.0085 42.2382C62.9038 42.1885 62.7828 42.145 62.6388 42.1045C62.4948 42.0641 62.3279 42.0424 62.1316 42.0424C61.9615 42.0424 61.8109 42.0641 61.6768 42.1045C61.5426 42.145 61.4248 42.2009 61.3299 42.2724C61.235 42.3439 61.1598 42.4278 61.1107 42.5211C61.0616 42.6143 61.0354 42.7169 61.0354 42.8288C61.0354 42.9687 61.078 43.0837 61.163 43.177C61.2481 43.2702 61.3594 43.351 61.4968 43.4163C61.6342 43.4847 61.7946 43.5438 61.9713 43.5966C62.148 43.6495 62.3279 43.7023 62.5144 43.7614C62.701 43.8204 62.8809 43.8857 63.0576 43.9572C63.2343 44.0287 63.3914 44.1188 63.5321 44.2245C63.6695 44.3302 63.784 44.4639 63.8658 44.6193C63.9509 44.7747 63.9935 44.9612 63.9935 45.1788C63.9935 45.4275 63.9476 45.6607 63.8528 45.872C63.7579 46.0834 63.6204 46.2668 63.4372 46.4222C63.254 46.5777 63.0282 46.6989 62.7599 46.789C62.4915 46.8792 62.184 46.9227 61.8371 46.9227C61.4379 46.9227 61.078 46.8605 60.754 46.7393C60.4301 46.6181 60.1585 46.4595 59.9327 46.2668L60.1683 45.9031C60.1978 45.8565 60.2338 45.8223 60.2763 45.7974C60.3188 45.7726 60.3712 45.7601 60.4399 45.7601C60.5086 45.7601 60.5773 45.785 60.6526 45.8347C60.7279 45.8845 60.8195 45.9404 60.9275 45.9995C61.0354 46.0585 61.163 46.1145 61.3168 46.1642C61.4706 46.214 61.6604 46.2388 61.8895 46.2388C62.0858 46.2388 62.2559 46.214 62.4032 46.1673C62.5504 46.1207 62.6715 46.0554 62.7697 45.9715C62.8678 45.8907 62.9398 45.7943 62.9856 45.6886C63.0314 45.5829 63.0543 45.4679 63.0543 45.3467C63.0543 45.1975 63.0118 45.0732 62.9267 44.9737C62.8417 44.8742 62.7304 44.7903 62.593 44.7219C62.4555 44.6535 62.2952 44.5913 62.1152 44.5385C61.9353 44.4857 61.7553 44.4328 61.5688 44.3737C61.3823 44.3178 61.2023 44.2525 61.0223 44.1779C60.8424 44.1064 60.6853 44.0132 60.5446 43.9013C60.4039 43.7893 60.2927 43.6557 60.2108 43.4909C60.129 43.3262 60.0832 43.1303 60.0832 42.9003C60.0832 42.692 60.129 42.4931 60.2174 42.3035C60.309 42.1139 60.4399 41.946 60.6133 41.7999C60.7868 41.6569 60.9994 41.5388 61.2514 41.4549C61.5034 41.3709 61.7913 41.3274 62.112 41.3274C62.4883 41.3274 62.8253 41.3834 63.1231 41.4953C63.4208 41.6072 63.6793 41.7626 63.8986 41.9584L63.6728 42.3066V42.3097Z"/>
    <path d="M28.6948 15.872C29.3427 16.3942 30.4192 16.7734 31.4925 16.7983H31.5939C32.6672 16.7734 33.7404 16.3942 34.3916 15.872C37.7619 13.1427 47.526 4.62544 47.526 4.62544C50.1732 2.32515 42.8796 0.024868 31.6168 0H31.5154C20.2265 0.024868 12.9099 2.32515 15.5342 4.62544C15.5342 4.62544 25.3245 13.1427 28.6948 15.872Z"/>
    <path d="M34.4145 20.4725C33.7666 20.9948 32.6901 21.374 31.6168 21.3989H31.5154C30.4421 21.374 29.3688 20.9948 28.7177 20.4725C26.3716 18.5733 18.129 11.4828 15.0336 8.80015V12.9034C15.0336 13.3541 15.207 13.9478 15.5342 14.2307C17.6316 16.0585 25.7728 23.1521 28.721 25.5238C29.3689 26.0461 30.4454 26.4253 31.5187 26.4502H31.6201C32.6934 26.4253 33.7666 26.0461 34.4178 25.5238C37.3398 23.1521 45.4809 16.0833 47.6045 14.2307C47.9285 13.9447 48.1052 13.3541 48.1052 12.9034V8.80015C44.9836 11.4797 36.741 18.5981 34.4211 20.4725H34.4145Z"/>
    <path d="M34.4145 30.1306C33.7666 30.6529 32.6901 31.0321 31.6168 31.057H31.5154C30.4421 31.0321 29.3688 30.6529 28.7177 30.1306C26.3716 28.2313 18.129 21.1409 15.0336 18.4582V22.5614C15.0336 23.0122 15.207 23.6059 15.5342 23.8888C17.6316 25.7166 25.7728 32.8102 28.721 35.1819C29.3689 35.7042 30.4454 36.0834 31.5187 36.1083H31.6201C32.6934 36.0834 33.7666 35.7042 34.4178 35.1819C37.3398 32.8102 45.4809 25.7383 47.6045 23.8888C47.9285 23.6028 48.1052 23.0122 48.1052 22.5614V18.4582C44.9836 21.1378 36.741 28.2562 34.4211 30.1306H34.4145Z"/>
</svg>
